<svg xmlns="http://www.w3.org/2000/svg" width="150.628" height="163.021" viewBox="0 0 150.628 163.021">
  <defs>
    <style>
      .cls-1, .cls-3 {
        fill: #fff;
      }

      .cls-1 {
        stroke: #0473e1;
      }

      .cls-1, .cls-5 {
        stroke-miterlimit: 10;
      }

      .cls-2, .cls-5 {
        fill: #0473e1;
      }

      .cls-4 {
        fill: none;
        stroke: #000;
        stroke-linecap: round;
        stroke-linejoin: round;
        stroke-width: 3px;
      }

      .cls-5 {
        stroke: #fff;
      }
    </style>
  </defs>
  <g id="CAT" transform="translate(-64.69 -282.083)">
    <path id="Cat_s_background_white_" data-name="Cat&apos;s background(white)" class="cls-1" d="M212.886,438.505c0,8.736-.255,8.816-5.463,15.6-8.931,11.626-27.039,22.524-44.451,22.524-17.033,0-34.626-10.168-43.633-21.37-5.571-6.928-6.281-7.688-6.281-16.75,0-23.714,22.347-42.938,49.914-42.938S212.886,414.791,212.886,438.505Z" transform="translate(-18.06 -42.829)"/>
    <path id="Cat_s_background_blue_" data-name="Cat&apos;s background(blue)" class="cls-2" d="M197.464,327.181c6.734-25.145,33.8-29.846,33.8-29.846l-21.507-7.145c-7.852,4.4-15.824,12.709-19.55,30.23A46.316,46.316,0,0,0,161.091,309.8a44.448,44.448,0,0,0-18.3,3.965c8.8-20.51,31.958-24.535,31.958-24.535l-21.507-7.145c-8.932,5-18.02,15.068-20.834,38-15.006,11.775-24.969,32.515-24.969,56.137a80.3,80.3,0,0,0,3.682,24.227c1.622-21.929,20.988-11.994,20.988-11.994,4.786-7.929,7.59-21.918,28.98-20.647s28.756,20.647,28.756,20.647,19.7-10.106,21.025,12.567a80.2,80.2,0,0,0,3.868-24.8c0-19.407-6.725-36.869-17.445-49.012Z" transform="translate(-15.941)"/>
    <g id="Cat_s_face" data-name="Cat&apos;s face" transform="translate(117.818 360.348)">
      <circle id="Cat_s_nose" data-name="Cat&apos;s nose" cx="9.856" cy="9.856" r="9.856" transform="translate(17.746 30.812)"/>
      <path id="Cat_s_pupils_white_" data-name="Cat&apos;s pupils(white)" class="cls-1" d="M189.127,373.975c-10.557,0-19.384,10.112-21.6,23.641-2.221-13.53-11.047-23.641-21.6-23.641-12.232,0-22.148,13.57-22.148,30.309s9.916,30.309,22.148,30.309c10.558,0,19.384-10.112,21.6-23.641,2.22,13.53,11.047,23.641,21.6,23.641,12.232,0,22.149-13.57,22.149-30.309S201.359,373.975,189.127,373.975Z" transform="translate(-139.92 -395.028)"/>
      <ellipse id="Cat_s_pupils_left_black_" data-name="Cat&apos;s pupils(left_black)" cx="5.935" cy="12.284" rx="5.935" ry="12.284" transform="translate(0.353)"/>
      <circle id="타원_left_" data-name="타원(left)" class="cls-3" cx="2.255" cy="2.255" r="2.255" transform="translate(0 8.631)"/>
      <path id="Cat_s_eye_right_" data-name="Cat&apos;s eye(right)" class="cls-4" d="M209.874,426.451s8.786-18.063,27.512-4.693" transform="translate(-172.416 -411.201)"/>
    </g>
    <path id="Cat_s_paw_3" data-name="Cat&apos;s paw 3" class="cls-5" d="M73.174,464.743a22.049,22.049,0,0,0-.728-8.078c-1.23-4.29-4.864-2.007-6.842-10.363s3.86-12.511,6.867-13.145,10.158-1.6,14.324,4.236c9.062,12.7-2.555,26.406-2.555,26.406" transform="translate(0 -56.833)"/>
    <path id="Cat_s_paw_2" data-name="Cat&apos;s paw 2" class="cls-5" d="M111.153,469.885a13.657,13.657,0,0,0-1.093-5.184c-1.037-1.839-4.444-3.612-9.46-4.287s-11.723,1.931-15.243,3.214-9.412,8.266-9.412,8.266c-1.576,2.282-4.6,4.87-5.668,8.56a15.159,15.159,0,0,0,.211,10.244c1.3,3.084,2.55,3.361,2.55,3.361a29.67,29.67,0,0,0,3.42,9.026c2.408,3.716,6.589,4.026,8.046,4.26a20.222,20.222,0,0,0,18.743,3.629c11.336-3.257,14.193-10.249,14.952-11.275s2.285-4.181.056-10.518a11.894,11.894,0,0,0-2.364-3.509" transform="translate(-1.62 -67.26)"/>
    <path id="Cat_s_paw_1" data-name="Cat&apos;s paw 1" class="cls-5" d="M105.554,484.212s7.283-6.085,9.21-6.707,8.537-5.158,14.02,1.809.628,11.673-.785,13.7-4.3,6.321-15.885,9.414" transform="translate(-15.228 -72.988)"/>
  </g>
</svg>
