<svg id="CAT" xmlns="http://www.w3.org/2000/svg" width="128.198" height="157.582" viewBox="0 0 128.198 157.582">
    <defs>
        <style>
            .cls-1,.cls-3{fill:#fff}.cls-1{stroke:#0473e1;stroke-miterlimit:10}
        </style>
    </defs>
    <path id="background_white_" data-name="background(white)" class="cls-1" d="M646.941 440.024c0 9.045-.264 9.128-5.657 16.148-9.247 12.038-27.995 23.321-46.023 23.321-17.634 0-35.85-10.527-45.177-22.126-5.768-7.173-6.5-7.96-6.5-17.343 0-24.553 23.138-44.457 51.68-44.457s51.677 19.904 51.677 44.457z" transform="translate(-539.96 -322.412)"/>
    <path id="background_blue_" data-name="background(blue)" d="M631.172 328.776c6.972-26.035 34.99-30.9 34.99-30.9l-22.267-7.4c-8.13 4.553-16.385 13.158-20.241 31.3a47.955 47.955 0 0 0-30.142-11 46.015 46.015 0 0 0-18.944 4.106c9.112-21.235 33.088-25.4 33.088-25.4l-22.268-7.4c-9.248 5.179-18.657 15.6-21.571 39.34-15.537 12.192-25.852 33.665-25.852 58.123a83.145 83.145 0 0 0 3.813 25.084c.786-10.64 5.608-14.035 10.511-14.638a39.875 39.875 0 0 1-3.8-17.291c0-8.7 2.588-16.568 6.765-22.252l38.257 20.386 38.215-21.169c4.528 5.733 7.365 13.929 7.365 23.035a39.839 39.839 0 0 1-3.851 17.406c4.728.866 9.2 4.557 9.813 15.117a83.019 83.019 0 0 0 4.006-25.677c0-20.094-6.963-38.173-18.063-50.746z" transform="translate(-537.964 -282.083)" style="fill:#0473e1"/>
    <g id="그룹_819" data-name="그룹 819" transform="translate(26.809 81.034)">
        <circle id="Cat_s_nose" data-name="Cat's nose" cx="10.204" cy="10.204" transform="translate(18.814 31.902)" r="10.204"/>
        <path id="Cat_s_pupils_white_" data-name="Cat's pupils(white)" class="cls-1" d="m637.53 386.922-38.215 21.17-38.257-20.386c-4.177 5.684-6.765 13.554-6.765 22.252a39.874 39.874 0 0 0 3.8 17.292c4.1 8.488 11.14 14.09 19.134 14.09 10.931 0 20.07-10.469 22.369-24.478 2.3 14.008 11.438 24.478 22.369 24.478 7.959 0 14.969-5.551 19.081-13.975a39.838 39.838 0 0 0 3.851-17.406c-.002-9.108-2.84-17.304-7.367-23.037z" transform="translate(-570.575 -400.374)"/>
        <ellipse id="Cat_s_pupils_left_black_" data-name="Cat's pupils(left_black)" cx="6.145" cy="12.718" rx="6.145" ry="12.718" transform="translate(.365)"/>
        <ellipse id="Cat_s_pupils_right_black_" data-name="Cat's pupils(right_black)" cx="6.145" cy="12.718" rx="6.145" ry="12.718" transform="translate(45.243)"/>
        <circle id="타원_right_" data-name="타원(right)" class="cls-3" cx="2.334" cy="2.334" transform="translate(44.877 8.937)" r="2.334"/>
        <circle id="타원_left_" data-name="타원(left)" class="cls-3" cx="2.334" cy="2.334" transform="translate(0 8.937)" r="2.334"/>
    </g>
</svg>
