<svg xmlns="http://www.w3.org/2000/svg" width="342.277" height="126.078" viewBox="0 0 342.277 126.078">
    <defs>
        <clipPath id="clip-path">
            <path style="fill:none" d="M0 0h342.277v126.078H0z"/>
        </clipPath>
        <style>
            .cls-3{fill:#edf4fb}
        </style>
    </defs>
    <g id="Background" style="clip-path:url(#clip-path)">
        <g id="그룹_649" data-name="그룹 649">
            <path id="패스_364" data-name="패스 364" class="cls-3" d="M28.7 243.769a4.861 4.861 0 0 1-9.723 0c0-2.685 4.861-14.383 4.861-14.383s4.862 11.698 4.862 14.383z" transform="translate(-18.973 -229.386)"/>
            <path id="패스_366" data-name="패스 366" class="cls-3" d="M75.911 291.916a4.861 4.861 0 1 1-9.723 0c0-2.685 4.862-14.382 4.862-14.382s4.861 11.698 4.861 14.382z" transform="translate(-37.634 -248.416)"/>
            <path id="패스_367" data-name="패스 367" class="cls-3" d="M28.7 335.01a4.861 4.861 0 0 1-9.723 0c0-2.685 4.861-14.383 4.861-14.383S28.7 332.325 28.7 335.01z" transform="translate(-18.973 -265.448)"/>
            <path id="패스_369" data-name="패스 369" class="cls-3" d="M75.911 383.157a4.861 4.861 0 1 1-9.723 0c0-2.685 4.862-14.382 4.862-14.382s4.861 11.698 4.861 14.382z" transform="translate(-37.634 -284.478)"/>
        </g>
        <g id="그룹_649-2" data-name="그룹 649" transform="translate(59)">
            <path id="패스_364-2" data-name="패스 364" class="cls-3" d="M28.7 243.769a4.861 4.861 0 0 1-9.723 0c0-2.685 4.861-14.383 4.861-14.383s4.862 11.698 4.862 14.383z" transform="translate(-18.973 -229.386)"/>
            <path id="패스_366-2" data-name="패스 366" class="cls-3" d="M75.911 291.916a4.861 4.861 0 1 1-9.723 0c0-2.685 4.862-14.382 4.862-14.382s4.861 11.698 4.861 14.382z" transform="translate(-37.634 -248.416)"/>
            <path id="패스_367-2" data-name="패스 367" class="cls-3" d="M28.7 335.01a4.861 4.861 0 0 1-9.723 0c0-2.685 4.861-14.383 4.861-14.383S28.7 332.325 28.7 335.01z" transform="translate(-18.973 -265.448)"/>
            <path id="패스_369-2" data-name="패스 369" class="cls-3" d="M75.911 383.157a4.861 4.861 0 1 1-9.723 0c0-2.685 4.862-14.382 4.862-14.382s4.861 11.698 4.861 14.382z" transform="translate(-37.634 -284.478)"/>
        </g>
        <g id="그룹_649-3" data-name="그룹 649" transform="translate(118)">
            <path id="패스_364-3" data-name="패스 364" class="cls-3" d="M28.7 243.769a4.861 4.861 0 0 1-9.723 0c0-2.685 4.861-14.383 4.861-14.383s4.862 11.698 4.862 14.383z" transform="translate(-18.973 -229.386)"/>
            <path id="패스_366-3" data-name="패스 366" class="cls-3" d="M75.911 291.916a4.861 4.861 0 1 1-9.723 0c0-2.685 4.862-14.382 4.862-14.382s4.861 11.698 4.861 14.382z" transform="translate(-37.634 -248.416)"/>
            <path id="패스_367-3" data-name="패스 367" class="cls-3" d="M28.7 335.01a4.861 4.861 0 0 1-9.723 0c0-2.685 4.861-14.383 4.861-14.383S28.7 332.325 28.7 335.01z" transform="translate(-18.973 -265.448)"/>
            <path id="패스_369-3" data-name="패스 369" class="cls-3" d="M75.911 383.157a4.861 4.861 0 1 1-9.723 0c0-2.685 4.862-14.382 4.862-14.382s4.861 11.698 4.861 14.382z" transform="translate(-37.634 -284.478)"/>
        </g>
        <g id="그룹_649-4" data-name="그룹 649" transform="translate(177)">
            <path id="패스_364-4" data-name="패스 364" class="cls-3" d="M28.7 243.769a4.861 4.861 0 0 1-9.723 0c0-2.685 4.861-14.383 4.861-14.383s4.862 11.698 4.862 14.383z" transform="translate(-18.973 -229.386)"/>
            <path id="패스_366-4" data-name="패스 366" class="cls-3" d="M75.911 291.916a4.861 4.861 0 1 1-9.723 0c0-2.685 4.862-14.382 4.862-14.382s4.861 11.698 4.861 14.382z" transform="translate(-37.634 -248.416)"/>
            <path id="패스_367-4" data-name="패스 367" class="cls-3" d="M28.7 335.01a4.861 4.861 0 0 1-9.723 0c0-2.685 4.861-14.383 4.861-14.383S28.7 332.325 28.7 335.01z" transform="translate(-18.973 -265.448)"/>
            <path id="패스_369-4" data-name="패스 369" class="cls-3" d="M75.911 383.157a4.861 4.861 0 1 1-9.723 0c0-2.685 4.862-14.382 4.862-14.382s4.861 11.698 4.861 14.382z" transform="translate(-37.634 -284.478)"/>
        </g>
        <g id="그룹_649-5" data-name="그룹 649" transform="translate(236)">
            <path id="패스_364-5" data-name="패스 364" class="cls-3" d="M28.7 243.769a4.861 4.861 0 0 1-9.723 0c0-2.685 4.861-14.383 4.861-14.383s4.862 11.698 4.862 14.383z" transform="translate(-18.973 -229.386)"/>
            <path id="패스_366-5" data-name="패스 366" class="cls-3" d="M75.911 291.916a4.861 4.861 0 1 1-9.723 0c0-2.685 4.862-14.382 4.862-14.382s4.861 11.698 4.861 14.382z" transform="translate(-37.634 -248.416)"/>
            <path id="패스_367-5" data-name="패스 367" class="cls-3" d="M28.7 335.01a4.861 4.861 0 0 1-9.723 0c0-2.685 4.861-14.383 4.861-14.383S28.7 332.325 28.7 335.01z" transform="translate(-18.973 -265.448)"/>
            <path id="패스_369-5" data-name="패스 369" class="cls-3" d="M75.911 383.157a4.861 4.861 0 1 1-9.723 0c0-2.685 4.862-14.382 4.862-14.382s4.861 11.698 4.861 14.382z" transform="translate(-37.634 -284.478)"/>
        </g>
        <g id="그룹_649-6" data-name="그룹 649" transform="translate(295)">
            <path id="패스_364-6" data-name="패스 364" class="cls-3" d="M28.7 243.769a4.861 4.861 0 0 1-9.723 0c0-2.685 4.861-14.383 4.861-14.383s4.862 11.698 4.862 14.383z" transform="translate(-18.973 -229.386)"/>
            <path id="패스_366-6" data-name="패스 366" class="cls-3" d="M75.911 291.916a4.861 4.861 0 1 1-9.723 0c0-2.685 4.862-14.382 4.862-14.382s4.861 11.698 4.861 14.382z" transform="translate(-37.634 -248.416)"/>
            <path id="패스_367-6" data-name="패스 367" class="cls-3" d="M28.7 335.01a4.861 4.861 0 0 1-9.723 0c0-2.685 4.861-14.383 4.861-14.383S28.7 332.325 28.7 335.01z" transform="translate(-18.973 -265.448)"/>
            <path id="패스_369-6" data-name="패스 369" class="cls-3" d="M75.911 383.157a4.861 4.861 0 1 1-9.723 0c0-2.685 4.862-14.382 4.862-14.382s4.861 11.698 4.861 14.382z" transform="translate(-37.634 -284.478)"/>
        </g>
        <g id="그룹_649-7" data-name="그룹 649" transform="translate(0 124)">
            <path id="패스_364-7" data-name="패스 364" class="cls-3" d="M28.7 243.769a4.861 4.861 0 0 1-9.723 0c0-2.685 4.861-14.383 4.861-14.383s4.862 11.698 4.862 14.383z" transform="translate(-18.973 -229.386)"/>
            <path id="패스_366-7" data-name="패스 366" class="cls-3" d="M75.911 291.916a4.861 4.861 0 1 1-9.723 0c0-2.685 4.862-14.382 4.862-14.382s4.861 11.698 4.861 14.382z" transform="translate(-37.634 -248.416)"/>
            <path id="패스_367-7" data-name="패스 367" class="cls-3" d="M28.7 335.01a4.861 4.861 0 0 1-9.723 0c0-2.685 4.861-14.383 4.861-14.383S28.7 332.325 28.7 335.01z" transform="translate(-18.973 -265.448)"/>
            <path id="패스_369-7" data-name="패스 369" class="cls-3" d="M75.911 383.157a4.861 4.861 0 1 1-9.723 0c0-2.685 4.862-14.382 4.862-14.382s4.861 11.698 4.861 14.382z" transform="translate(-37.634 -284.478)"/>
        </g>
        <g id="그룹_649-8" data-name="그룹 649" transform="translate(59 124)">
            <path id="패스_364-8" data-name="패스 364" class="cls-3" d="M28.7 243.769a4.861 4.861 0 0 1-9.723 0c0-2.685 4.861-14.383 4.861-14.383s4.862 11.698 4.862 14.383z" transform="translate(-18.973 -229.386)"/>
            <path id="패스_366-8" data-name="패스 366" class="cls-3" d="M75.911 291.916a4.861 4.861 0 1 1-9.723 0c0-2.685 4.862-14.382 4.862-14.382s4.861 11.698 4.861 14.382z" transform="translate(-37.634 -248.416)"/>
            <path id="패스_367-8" data-name="패스 367" class="cls-3" d="M28.7 335.01a4.861 4.861 0 0 1-9.723 0c0-2.685 4.861-14.383 4.861-14.383S28.7 332.325 28.7 335.01z" transform="translate(-18.973 -265.448)"/>
            <path id="패스_369-8" data-name="패스 369" class="cls-3" d="M75.911 383.157a4.861 4.861 0 1 1-9.723 0c0-2.685 4.862-14.382 4.862-14.382s4.861 11.698 4.861 14.382z" transform="translate(-37.634 -284.478)"/>
        </g>
        <g id="그룹_649-9" data-name="그룹 649" transform="translate(118 124)">
            <path id="패스_364-9" data-name="패스 364" class="cls-3" d="M28.7 243.769a4.861 4.861 0 0 1-9.723 0c0-2.685 4.861-14.383 4.861-14.383s4.862 11.698 4.862 14.383z" transform="translate(-18.973 -229.386)"/>
            <path id="패스_366-9" data-name="패스 366" class="cls-3" d="M75.911 291.916a4.861 4.861 0 1 1-9.723 0c0-2.685 4.862-14.382 4.862-14.382s4.861 11.698 4.861 14.382z" transform="translate(-37.634 -248.416)"/>
            <path id="패스_367-9" data-name="패스 367" class="cls-3" d="M28.7 335.01a4.861 4.861 0 0 1-9.723 0c0-2.685 4.861-14.383 4.861-14.383S28.7 332.325 28.7 335.01z" transform="translate(-18.973 -265.448)"/>
            <path id="패스_369-9" data-name="패스 369" class="cls-3" d="M75.911 383.157a4.861 4.861 0 1 1-9.723 0c0-2.685 4.862-14.382 4.862-14.382s4.861 11.698 4.861 14.382z" transform="translate(-37.634 -284.478)"/>
        </g>
        <g id="그룹_649-10" data-name="그룹 649" transform="translate(177 124)">
            <path id="패스_364-10" data-name="패스 364" class="cls-3" d="M28.7 243.769a4.861 4.861 0 0 1-9.723 0c0-2.685 4.861-14.383 4.861-14.383s4.862 11.698 4.862 14.383z" transform="translate(-18.973 -229.386)"/>
            <path id="패스_366-10" data-name="패스 366" class="cls-3" d="M75.911 291.916a4.861 4.861 0 1 1-9.723 0c0-2.685 4.862-14.382 4.862-14.382s4.861 11.698 4.861 14.382z" transform="translate(-37.634 -248.416)"/>
            <path id="패스_367-10" data-name="패스 367" class="cls-3" d="M28.7 335.01a4.861 4.861 0 0 1-9.723 0c0-2.685 4.861-14.383 4.861-14.383S28.7 332.325 28.7 335.01z" transform="translate(-18.973 -265.448)"/>
            <path id="패스_369-10" data-name="패스 369" class="cls-3" d="M75.911 383.157a4.861 4.861 0 1 1-9.723 0c0-2.685 4.862-14.382 4.862-14.382s4.861 11.698 4.861 14.382z" transform="translate(-37.634 -284.478)"/>
        </g>
        <g id="그룹_649-11" data-name="그룹 649" transform="translate(236 124)">
            <path id="패스_364-11" data-name="패스 364" class="cls-3" d="M28.7 243.769a4.861 4.861 0 0 1-9.723 0c0-2.685 4.861-14.383 4.861-14.383s4.862 11.698 4.862 14.383z" transform="translate(-18.973 -229.386)"/>
            <path id="패스_366-11" data-name="패스 366" class="cls-3" d="M75.911 291.916a4.861 4.861 0 1 1-9.723 0c0-2.685 4.862-14.382 4.862-14.382s4.861 11.698 4.861 14.382z" transform="translate(-37.634 -248.416)"/>
            <path id="패스_367-11" data-name="패스 367" class="cls-3" d="M28.7 335.01a4.861 4.861 0 0 1-9.723 0c0-2.685 4.861-14.383 4.861-14.383S28.7 332.325 28.7 335.01z" transform="translate(-18.973 -265.448)"/>
            <path id="패스_369-11" data-name="패스 369" class="cls-3" d="M75.911 383.157a4.861 4.861 0 1 1-9.723 0c0-2.685 4.862-14.382 4.862-14.382s4.861 11.698 4.861 14.382z" transform="translate(-37.634 -284.478)"/>
        </g>
        <g id="그룹_649-12" data-name="그룹 649" transform="translate(295 124)">
            <path id="패스_364-12" data-name="패스 364" class="cls-3" d="M28.7 243.769a4.861 4.861 0 0 1-9.723 0c0-2.685 4.861-14.383 4.861-14.383s4.862 11.698 4.862 14.383z" transform="translate(-18.973 -229.386)"/>
            <path id="패스_366-12" data-name="패스 366" class="cls-3" d="M75.911 291.916a4.861 4.861 0 1 1-9.723 0c0-2.685 4.862-14.382 4.862-14.382s4.861 11.698 4.861 14.382z" transform="translate(-37.634 -248.416)"/>
            <path id="패스_367-12" data-name="패스 367" class="cls-3" d="M28.7 335.01a4.861 4.861 0 0 1-9.723 0c0-2.685 4.861-14.383 4.861-14.383S28.7 332.325 28.7 335.01z" transform="translate(-18.973 -265.448)"/>
            <path id="패스_369-12" data-name="패스 369" class="cls-3" d="M75.911 383.157a4.861 4.861 0 1 1-9.723 0c0-2.685 4.862-14.382 4.862-14.382s4.861 11.698 4.861 14.382z" transform="translate(-37.634 -284.478)"/>
        </g>
    </g>
</svg>
