<svg xmlns="http://www.w3.org/2000/svg" width="126.913" height="156.006" viewBox="0 0 126.913 156.006">
  <defs>
    <style>
      .cls-1, .cls-3 {
        fill: #fff;
      }

      .cls-1 {
        stroke: #0473e1;
        stroke-miterlimit: 10;
      }

      .cls-2 {
        fill: #0473e1;
      }
    </style>
  </defs>
  <g id="CAT" transform="translate(-320.363 -282.083)">
    <path id="background_white_" data-name="background(white)" class="cls-1" d="M428.3,439.579c0,8.954-.261,9.036-5.6,15.986-9.154,11.917-27.714,23.087-45.561,23.087-17.458,0-35.491-10.422-44.724-21.9-5.71-7.1-6.438-7.88-6.438-17.169,0-24.307,22.906-44.012,51.162-44.012S428.3,415.272,428.3,439.579Z" transform="translate(-2.032 -41.063)"/>
    <path id="background_blue_" data-name="background(blue)" class="cls-2" d="M412.636,328.308c6.9-25.773,34.64-30.592,34.64-30.592l-22.045-7.324c-8.049,4.507-16.22,13.026-20.038,30.986a47.474,47.474,0,0,0-29.839-10.888,45.559,45.559,0,0,0-18.755,4.064c9.021-21.022,32.756-25.148,32.756-25.148l-22.044-7.324c-9.156,5.127-18.47,15.444-21.355,38.945-15.381,12.07-25.593,33.327-25.593,57.54a82.313,82.313,0,0,0,3.774,24.833c.779-10.533,5.552-13.893,10.4-14.491a39.091,39.091,0,0,1-3.725-15.447h89.627a39.041,39.041,0,0,1-3.782,15.56c4.682.857,9.107,4.51,9.718,14.966a82.209,82.209,0,0,0,3.965-25.42c0-19.892-6.893-37.79-17.881-50.237Z" transform="translate(0 0)"/>
    <g id="Cat_s_face" data-name="Cat&apos;s face" transform="translate(347.333 373.629)">
      <circle id="Cat_s_nose" data-name="Cat&apos;s nose" cx="10.102" cy="10.102" r="10.102" transform="translate(18.195 20.257)"/>
      <path id="Cat_s_pupils_white_" data-name="Cat&apos;s pupils(white)" class="cls-1" d="M394.466,425.274H336.743a39.091,39.091,0,0,0,3.725,15.447c4.063,8.4,11.029,13.948,18.944,13.948,10.822,0,19.869-10.364,22.145-24.232,2.276,13.868,11.323,24.232,22.144,24.232,7.879,0,14.817-5.5,18.887-13.836a39.042,39.042,0,0,0,3.782-15.56Z" transform="translate(-353.26 -425.44)"/>
      <path id="Cat_s_eye_left_black_" data-name="Cat&apos;s eye(left_black)" d="M375.074,425.535c0,6.953-2.723,12.59-6.082,12.59s-6.083-5.637-6.083-12.59" transform="translate(-362.728 -425.535)"/>
      <path id="Cat_s_eye_right_black_" data-name="Cat&apos;s eye(right_black)" d="M444.691,425.535c0,6.953-2.723,12.59-6.082,12.59s-6.083-5.637-6.083-12.59" transform="translate(-387.918 -425.535)"/>
      <path id="타원_right_" data-name="타원(right)" class="cls-3" d="M436.864,425.558a2.311,2.311,0,0,1-4.622,0" transform="translate(-387.815 -425.543)"/>
      <path id="타원_left_" data-name="타원(left)" class="cls-3" d="M367.247,425.558a2.311,2.311,0,0,1-4.622,0" transform="translate(-362.625 -425.543)"/>
    </g>
  </g>
</svg>
