<svg xmlns="http://www.w3.org/2000/svg" width="123.818" height="152.214" viewBox="0 0 123.818 152.214">
    <defs>
        <style>
            .cls-1,.cls-3{fill:#fff}.cls-1{stroke:#0473e1;stroke-miterlimit:10}
        </style>
    </defs>
    <g id="CAT" transform="translate(-91.5 -282.083)">
        <path id="Cat_s_background_white_" data-name="Cat's background(white)" class="cls-1" d="M212.886 438.505c0 8.736-.255 8.816-5.463 15.6-8.931 11.626-27.039 22.524-44.451 22.524-17.033 0-34.626-10.168-43.633-21.37-5.571-6.928-6.281-7.688-6.281-16.75 0-23.714 22.347-42.938 49.914-42.938s49.914 19.22 49.914 42.934z" transform="translate(-18.06 -42.829)"/>
        <path id="Cat_s_background_blue_" data-name="Cat's background(blue)" d="M197.464 327.181c6.734-25.145 33.8-29.846 33.8-29.846l-21.507-7.145c-7.852 4.4-15.824 12.709-19.55 30.23a46.316 46.316 0 0 0-29.116-10.62 44.448 44.448 0 0 0-18.3 3.965c8.8-20.51 31.958-24.535 31.958-24.535l-21.507-7.145c-8.932 5-18.02 15.068-20.834 38-15.006 11.775-24.969 32.515-24.969 56.137a80.3 80.3 0 0 0 3.682 24.227c1.622-21.929 20.988-11.994 20.988-11.994 4.786-7.929 7.59-21.918 28.98-20.647s28.756 20.647 28.756 20.647 19.7-10.106 21.025 12.567a80.2 80.2 0 0 0 3.868-24.8c0-19.407-6.725-36.869-17.445-49.012z" transform="translate(-15.941)" style="fill:#0473e1"/>
        <g id="Cat_s_face" data-name="Cat's face" transform="translate(117.818 360.348)">
            <circle id="Cat_s_nose" data-name="Cat's nose" cx="9.856" cy="9.856" r="9.856" transform="translate(17.746 30.812)"/>
            <path id="Cat_s_pupils_white_" data-name="Cat's pupils(white)" class="cls-1" d="M189.127 373.975c-10.557 0-19.384 10.112-21.6 23.641-2.221-13.53-11.047-23.641-21.6-23.641-12.232 0-22.148 13.57-22.148 30.309s9.916 30.309 22.148 30.309c10.558 0 19.384-10.112 21.6-23.641 2.22 13.53 11.047 23.641 21.6 23.641 12.232 0 22.149-13.57 22.149-30.309s-9.917-30.309-22.149-30.309z" transform="translate(-139.92 -395.028)"/>
            <ellipse id="Cat_s_pupils_left_black_" data-name="Cat's pupils(left_black)" cx="5.935" cy="12.284" rx="5.935" ry="12.284" transform="translate(.353)"/>
            <ellipse id="Cat_s_pupils_left_black_2" data-name="Cat's pupils(left_black)" cx="5.935" cy="12.284" rx="5.935" ry="12.284" transform="translate(43.353)"/>
            <circle id="타원_left_" data-name="타원(left)" class="cls-3" cx="2.255" cy="2.255" r="2.255" transform="translate(0 8.631)"/>
            <circle id="타원_left_2" data-name="타원(left)" class="cls-3" cx="2.255" cy="2.255" r="2.255" transform="translate(43 8.631)"/>
        </g>
    </g>
</svg>
