<svg xmlns="http://www.w3.org/2000/svg" xmlns:xlink="http://www.w3.org/1999/xlink" width="45.583" height="30.774" viewBox="0 0 45.583 30.774">
  <defs>
    <style>
      .cls-1 {
        fill: #9bcdff;
      }

      .cls-2 {
        clip-path: url(#clip-path);
      }
    </style>
    <clipPath id="clip-path">
      <rect id="사각형_392" data-name="사각형 392" class="cls-1" width="45.583" height="30.774"/>
    </clipPath>
  </defs>
  <g id="SMS_icon" data-name="SMS icon" class="cls-2">
    <path id="패스_664" data-name="패스 664" class="cls-1" d="M0,18.649V47.226a.169.169,0,0,0,.28.137l14.861-13.6a.427.427,0,0,0,.013-.613L.287,18.516A.17.17,0,0,0,0,18.649" transform="translate(0 -17.147)"/>
    <path id="패스_665" data-name="패스 665" class="cls-1" d="M438.977,18.649V47.226a.169.169,0,0,1-.28.137l-14.861-13.6a.427.427,0,0,1-.013-.613L438.69,18.516a.17.17,0,0,1,.287.133" transform="translate(-393.394 -17.147)"/>
    <path id="패스_666" data-name="패스 666" class="cls-1" d="M51.887,241.047l-3.468,3.414a4.021,4.021,0,0,1-2.835,1.172,3.85,3.85,0,0,1-2.717-1.108l-3.534-3.479-.1-.1L24.623,254.316a.1.1,0,0,0,.06.171H66.54a.1.1,0,0,0,.059-.171L51.987,240.947Z" transform="translate(-22.832 -223.713)"/>
    <path id="패스_667" data-name="패스 667" class="cls-1" d="M57.109,0H12.583a.1.1,0,0,0-.062.169l15.51,15.269.93.917L32.5,19.832a2.372,2.372,0,0,0,.413.331l.159.084a2.76,2.76,0,0,0,.3.151l.2.058a2.788,2.788,0,0,0,.292.08l.219.02a2.807,2.807,0,0,0,.291.022,2.554,2.554,0,0,0,.3-.029l.227-.026a2.33,2.33,0,0,0,.3-.089l.206-.064a2.857,2.857,0,0,0,.319-.166l.164-.087a2.8,2.8,0,0,0,.436-.351l3.467-3.414.931-.917" transform="translate(-11.598)"/>
  </g>
</svg>
