<svg xmlns="http://www.w3.org/2000/svg" width="376" height="151" viewBox="0 0 376 151">
    <defs>
        <clipPath id="clip-path">
            <path style="fill:none" d="M0 0h376v151H0z"/>
        </clipPath>
        <style>
            .cls-3{fill:#e60012;font-size:20px;font-family:NotoSansCJKkr-Bold,Noto Sans CJK KR;font-weight:700;opacity:.1}
        </style>
    </defs>
    <g id="background" style="clip-path:url(#clip-path)">
        <g transform="translate(15 -77)">
            <text id="WARNING" class="cls-3" transform="translate(-15 100)"><tspan x="0" y="0">WARNING</tspan></text>
        </g>
        <g transform="translate(131 -77)">
            <text id="WARNING-2" data-name="WARNING" class="cls-3" transform="translate(-15 100)"><tspan x="0" y="0">WARNING</tspan></text>
        </g>
        <g transform="translate(247 -77)">
            <text id="WARNING-3" data-name="WARNING" class="cls-3" transform="translate(-15 100)"><tspan x="0" y="0">WARNING</tspan></text>
        </g>
        <g transform="translate(363 -77)">
            <text id="WARNING-4" data-name="WARNING" class="cls-3" transform="translate(-15 100)"><tspan x="0" y="0">WARNING</tspan></text>
        </g>
        <g transform="translate(15 -28)">
            <text id="WARNING-5" data-name="WARNING" class="cls-3" transform="translate(-15 100)"><tspan x="0" y="0">WARNING</tspan></text>
        </g>
        <g transform="translate(131 -28)">
            <text id="WARNING-6" data-name="WARNING" class="cls-3" transform="translate(-15 100)"><tspan x="0" y="0">WARNING</tspan></text>
        </g>
        <g transform="translate(247 -28)">
            <text id="WARNING-7" data-name="WARNING" class="cls-3" transform="translate(-15 100)"><tspan x="0" y="0">WARNING</tspan></text>
        </g>
        <g transform="translate(363 -28)">
            <text id="WARNING-8" data-name="WARNING" class="cls-3" transform="translate(-15 100)"><tspan x="0" y="0">WARNING</tspan></text>
        </g>
        <g transform="translate(15 21)">
            <text id="WARNING-9" data-name="WARNING" class="cls-3" transform="translate(-15 100)"><tspan x="0" y="0">WARNING</tspan></text>
        </g>
        <g transform="translate(131 21)">
            <text id="WARNING-10" data-name="WARNING" class="cls-3" transform="translate(-15 100)"><tspan x="0" y="0">WARNING</tspan></text>
        </g>
        <g transform="translate(247 21)">
            <text id="WARNING-11" data-name="WARNING" class="cls-3" transform="translate(-15 100)"><tspan x="0" y="0">WARNING</tspan></text>
        </g>
        <g transform="translate(363 21)">
            <text id="WARNING-12" data-name="WARNING" class="cls-3" transform="translate(-15 100)"><tspan x="0" y="0">WARNING</tspan></text>
        </g>
        <g transform="translate(15 70)">
            <text id="WARNING-13" data-name="WARNING" class="cls-3" transform="translate(-15 100)"><tspan x="0" y="0">WARNING</tspan></text>
        </g>
        <g transform="translate(131 70)">
            <text id="WARNING-14" data-name="WARNING" class="cls-3" transform="translate(-15 100)"><tspan x="0" y="0">WARNING</tspan></text>
        </g>
        <g transform="translate(247 70)">
            <text id="WARNING-15" data-name="WARNING" class="cls-3" transform="translate(-15 100)"><tspan x="0" y="0">WARNING</tspan></text>
        </g>
        <g transform="translate(363 70)">
            <text id="WARNING-16" data-name="WARNING" class="cls-3" transform="translate(-15 100)"><tspan x="0" y="0">WARNING</tspan></text>
        </g>
    </g>
</svg>
