<svg xmlns="http://www.w3.org/2000/svg" width="317.396" height="158.524">
    <defs>
        <clipPath id="clip-path">
            <path style="fill:none" d="M0 0h317.396v158.524H0z"/>
        </clipPath>
        <style>
            .cls-3{opacity:.2}.cls-4{fill:#0473e1}.cls-5{opacity:.1}
        </style>
    </defs>
    <g id="반복_그리드_5" data-name="반복 그리드 5" style="clip-path:url(#clip-path)">
        <g id="그룹_728" data-name="그룹 728" transform="translate(-4300.421 -379.729)">
            <g id="그룹_716" data-name="그룹 716" class="cls-3" transform="translate(4300.421 379.729)">
                <path id="패스_415" data-name="패스 415" class="cls-4" d="M4326.481 383.582a17.371 17.371 0 0 0-21.468-.277l-3.781-2.466-.812 1.244 3.459 2.256-3.459 2.256.812 1.244 4.04-2.634a19.226 19.226 0 0 0 10.287 3.4 19.489 19.489 0 0 0 10.922-3.853l.74-.583zm-6.152 1.573a.99.99 0 1 1 .99-.99.991.991 0 0 1-.99.991z" transform="translate(-4300.421 -379.729)"/>
            </g>
            <g id="그룹_717" data-name="그룹 717" class="cls-3" transform="translate(4300.421 460.436)">
                <path id="패스_416" data-name="패스 416" class="cls-4" d="M4326.481 2013.6a17.371 17.371 0 0 0-21.468-.277l-3.781-2.466-.812 1.244 3.459 2.256-3.459 2.256.812 1.244 4.04-2.634a19.228 19.228 0 0 0 10.287 3.4 19.489 19.489 0 0 0 10.922-3.853l.74-.583zm-6.152 1.573a.99.99 0 1 1 .99-.99.991.991 0 0 1-.99.994z" transform="translate(-4300.421 -2009.75)"/>
            </g>
            <g id="그룹_718" data-name="그룹 718" class="cls-3" transform="translate(4300.421 542.38)">
                <path id="패스_417" data-name="패스 417" class="cls-4" d="M4326.481 3668.6a17.371 17.371 0 0 0-21.468-.277l-3.781-2.466-.812 1.244 3.459 2.256-3.459 2.256.812 1.244 4.04-2.634a19.228 19.228 0 0 0 10.287 3.4 19.491 19.491 0 0 0 10.922-3.853l.74-.583zm-6.152 1.573a.99.99 0 1 1 .99-.99.991.991 0 0 1-.99.994z" transform="translate(-4300.421 -3664.75)"/>
            </g>
            <g id="그룹_721" data-name="그룹 721" class="cls-5" transform="translate(4336.837 419.848)">
                <g id="그룹_719" data-name="그룹 719">
                    <path id="패스_418" data-name="패스 418" d="M4442.785 1193.466a2.293 2.293 0 0 1-1.9-1.33c-.32-.5-.452-.651-.656-.651s-.334.154-.655.65a2.025 2.025 0 0 1-3.8 0c-.32-.5-.452-.65-.653-.65s-.334.154-.655.65a2.025 2.025 0 0 1-3.8 0c-.319-.5-.452-.65-.653-.65V1190a2.291 2.291 0 0 1 1.9 1.33c.32.5.452.65.654.65s.334-.154.655-.65a2.025 2.025 0 0 1 3.8 0c.32.5.452.65.653.65s.334-.154.655-.65a2.026 2.026 0 0 1 3.806 0c.321.5.453.65.656.65s.338-.155.658-.651a2.377 2.377 0 0 1 1.906-1.33v1.485a1.785 1.785 0 0 0-.658.65 2.3 2.3 0 0 1-1.913 1.332z" transform="translate(-4430 -1190)"/>
                </g>
                <g id="그룹_720" data-name="그룹 720" transform="translate(0 4.456)">
                    <path id="패스_419" data-name="패스 419" d="M4442.785 1283.466a2.293 2.293 0 0 1-1.9-1.33c-.32-.5-.452-.651-.656-.651s-.334.154-.655.65a2.025 2.025 0 0 1-3.8 0c-.32-.5-.452-.65-.653-.65s-.334.154-.655.65a2.025 2.025 0 0 1-3.8 0c-.319-.5-.452-.65-.653-.65V1280a2.291 2.291 0 0 1 1.9 1.33c.32.5.452.65.654.65s.334-.154.655-.65a2.025 2.025 0 0 1 3.8 0c.32.5.452.65.653.65s.334-.154.655-.65a2.026 2.026 0 0 1 3.806 0c.321.5.453.65.656.65s.338-.155.658-.651a2.377 2.377 0 0 1 1.906-1.33v1.485a1.785 1.785 0 0 0-.658.65 2.3 2.3 0 0 1-1.913 1.332z" transform="translate(-4430 -1280)"/>
                </g>
            </g>
            <g id="그룹_724" data-name="그룹 724" class="cls-5" transform="translate(4336.837 503.029)">
                <g id="그룹_722" data-name="그룹 722">
                    <path id="패스_420" data-name="패스 420" d="M4442.785 2873.466a2.293 2.293 0 0 1-1.9-1.33c-.32-.5-.452-.651-.656-.651s-.334.154-.655.65a2.025 2.025 0 0 1-3.8 0c-.32-.5-.452-.65-.653-.65s-.334.154-.655.65a2.025 2.025 0 0 1-3.8 0c-.319-.5-.452-.65-.653-.65V2870a2.291 2.291 0 0 1 1.9 1.33c.32.5.452.65.654.65s.334-.154.655-.65a2.025 2.025 0 0 1 3.8 0c.32.5.452.65.653.65s.334-.154.655-.65a2.026 2.026 0 0 1 3.806 0c.321.5.453.65.656.65s.338-.155.658-.651a2.377 2.377 0 0 1 1.906-1.33v1.485a1.782 1.782 0 0 0-.658.65 2.3 2.3 0 0 1-1.913 1.332z" transform="translate(-4430 -2870)"/>
                </g>
                <g id="그룹_723" data-name="그룹 723" transform="translate(0 4.456)">
                    <path id="패스_421" data-name="패스 421" d="M4442.785 2963.466a2.293 2.293 0 0 1-1.9-1.33c-.32-.5-.452-.651-.656-.651s-.334.154-.655.65a2.025 2.025 0 0 1-3.8 0c-.32-.5-.452-.65-.653-.65s-.334.154-.655.65a2.025 2.025 0 0 1-3.8 0c-.319-.5-.452-.65-.653-.65V2960a2.291 2.291 0 0 1 1.9 1.33c.32.5.452.65.654.65s.334-.154.655-.65a2.025 2.025 0 0 1 3.8 0c.32.5.452.65.653.65s.334-.154.655-.65a2.026 2.026 0 0 1 3.806 0c.321.5.453.65.656.65s.338-.155.658-.651a2.377 2.377 0 0 1 1.906-1.33v1.485a1.785 1.785 0 0 0-.658.65 2.3 2.3 0 0 1-1.913 1.332z" transform="translate(-4430 -2960)"/>
                </g>
            </g>
        </g>
        <g id="그룹_728-2" data-name="그룹 728" transform="translate(-4228.421 -379.729)">
            <g id="그룹_716-2" data-name="그룹 716" class="cls-3" transform="translate(4300.421 379.729)">
                <path id="패스_415-2" data-name="패스 415" class="cls-4" d="M4326.481 383.582a17.371 17.371 0 0 0-21.468-.277l-3.781-2.466-.812 1.244 3.459 2.256-3.459 2.256.812 1.244 4.04-2.634a19.226 19.226 0 0 0 10.287 3.4 19.489 19.489 0 0 0 10.922-3.853l.74-.583zm-6.152 1.573a.99.99 0 1 1 .99-.99.991.991 0 0 1-.99.991z" transform="translate(-4300.421 -379.729)"/>
            </g>
            <g id="그룹_717-2" data-name="그룹 717" class="cls-3" transform="translate(4300.421 460.436)">
                <path id="패스_416-2" data-name="패스 416" class="cls-4" d="M4326.481 2013.6a17.371 17.371 0 0 0-21.468-.277l-3.781-2.466-.812 1.244 3.459 2.256-3.459 2.256.812 1.244 4.04-2.634a19.228 19.228 0 0 0 10.287 3.4 19.489 19.489 0 0 0 10.922-3.853l.74-.583zm-6.152 1.573a.99.99 0 1 1 .99-.99.991.991 0 0 1-.99.994z" transform="translate(-4300.421 -2009.75)"/>
            </g>
            <g id="그룹_718-2" data-name="그룹 718" class="cls-3" transform="translate(4300.421 542.38)">
                <path id="패스_417-2" data-name="패스 417" class="cls-4" d="M4326.481 3668.6a17.371 17.371 0 0 0-21.468-.277l-3.781-2.466-.812 1.244 3.459 2.256-3.459 2.256.812 1.244 4.04-2.634a19.228 19.228 0 0 0 10.287 3.4 19.491 19.491 0 0 0 10.922-3.853l.74-.583zm-6.152 1.573a.99.99 0 1 1 .99-.99.991.991 0 0 1-.99.994z" transform="translate(-4300.421 -3664.75)"/>
            </g>
            <g id="그룹_721-2" data-name="그룹 721" class="cls-5" transform="translate(4336.837 419.848)">
                <g id="그룹_719-2" data-name="그룹 719">
                    <path id="패스_418-2" data-name="패스 418" d="M4442.785 1193.466a2.293 2.293 0 0 1-1.9-1.33c-.32-.5-.452-.651-.656-.651s-.334.154-.655.65a2.025 2.025 0 0 1-3.8 0c-.32-.5-.452-.65-.653-.65s-.334.154-.655.65a2.025 2.025 0 0 1-3.8 0c-.319-.5-.452-.65-.653-.65V1190a2.291 2.291 0 0 1 1.9 1.33c.32.5.452.65.654.65s.334-.154.655-.65a2.025 2.025 0 0 1 3.8 0c.32.5.452.65.653.65s.334-.154.655-.65a2.026 2.026 0 0 1 3.806 0c.321.5.453.65.656.65s.338-.155.658-.651a2.377 2.377 0 0 1 1.906-1.33v1.485a1.785 1.785 0 0 0-.658.65 2.3 2.3 0 0 1-1.913 1.332z" transform="translate(-4430 -1190)"/>
                </g>
                <g id="그룹_720-2" data-name="그룹 720" transform="translate(0 4.456)">
                    <path id="패스_419-2" data-name="패스 419" d="M4442.785 1283.466a2.293 2.293 0 0 1-1.9-1.33c-.32-.5-.452-.651-.656-.651s-.334.154-.655.65a2.025 2.025 0 0 1-3.8 0c-.32-.5-.452-.65-.653-.65s-.334.154-.655.65a2.025 2.025 0 0 1-3.8 0c-.319-.5-.452-.65-.653-.65V1280a2.291 2.291 0 0 1 1.9 1.33c.32.5.452.65.654.65s.334-.154.655-.65a2.025 2.025 0 0 1 3.8 0c.32.5.452.65.653.65s.334-.154.655-.65a2.026 2.026 0 0 1 3.806 0c.321.5.453.65.656.65s.338-.155.658-.651a2.377 2.377 0 0 1 1.906-1.33v1.485a1.785 1.785 0 0 0-.658.65 2.3 2.3 0 0 1-1.913 1.332z" transform="translate(-4430 -1280)"/>
                </g>
            </g>
            <g id="그룹_724-2" data-name="그룹 724" class="cls-5" transform="translate(4336.837 503.029)">
                <g id="그룹_722-2" data-name="그룹 722">
                    <path id="패스_420-2" data-name="패스 420" d="M4442.785 2873.466a2.293 2.293 0 0 1-1.9-1.33c-.32-.5-.452-.651-.656-.651s-.334.154-.655.65a2.025 2.025 0 0 1-3.8 0c-.32-.5-.452-.65-.653-.65s-.334.154-.655.65a2.025 2.025 0 0 1-3.8 0c-.319-.5-.452-.65-.653-.65V2870a2.291 2.291 0 0 1 1.9 1.33c.32.5.452.65.654.65s.334-.154.655-.65a2.025 2.025 0 0 1 3.8 0c.32.5.452.65.653.65s.334-.154.655-.65a2.026 2.026 0 0 1 3.806 0c.321.5.453.65.656.65s.338-.155.658-.651a2.377 2.377 0 0 1 1.906-1.33v1.485a1.782 1.782 0 0 0-.658.65 2.3 2.3 0 0 1-1.913 1.332z" transform="translate(-4430 -2870)"/>
                </g>
                <g id="그룹_723-2" data-name="그룹 723" transform="translate(0 4.456)">
                    <path id="패스_421-2" data-name="패스 421" d="M4442.785 2963.466a2.293 2.293 0 0 1-1.9-1.33c-.32-.5-.452-.651-.656-.651s-.334.154-.655.65a2.025 2.025 0 0 1-3.8 0c-.32-.5-.452-.65-.653-.65s-.334.154-.655.65a2.025 2.025 0 0 1-3.8 0c-.319-.5-.452-.65-.653-.65V2960a2.291 2.291 0 0 1 1.9 1.33c.32.5.452.65.654.65s.334-.154.655-.65a2.025 2.025 0 0 1 3.8 0c.32.5.452.65.653.65s.334-.154.655-.65a2.026 2.026 0 0 1 3.806 0c.321.5.453.65.656.65s.338-.155.658-.651a2.377 2.377 0 0 1 1.906-1.33v1.485a1.785 1.785 0 0 0-.658.65 2.3 2.3 0 0 1-1.913 1.332z" transform="translate(-4430 -2960)"/>
                </g>
            </g>
        </g>
        <g id="그룹_728-3" data-name="그룹 728" transform="translate(-4156.421 -379.729)">
            <g id="그룹_716-3" data-name="그룹 716" class="cls-3" transform="translate(4300.421 379.729)">
                <path id="패스_415-3" data-name="패스 415" class="cls-4" d="M4326.481 383.582a17.371 17.371 0 0 0-21.468-.277l-3.781-2.466-.812 1.244 3.459 2.256-3.459 2.256.812 1.244 4.04-2.634a19.226 19.226 0 0 0 10.287 3.4 19.489 19.489 0 0 0 10.922-3.853l.74-.583zm-6.152 1.573a.99.99 0 1 1 .99-.99.991.991 0 0 1-.99.991z" transform="translate(-4300.421 -379.729)"/>
            </g>
            <g id="그룹_717-3" data-name="그룹 717" class="cls-3" transform="translate(4300.421 460.436)">
                <path id="패스_416-3" data-name="패스 416" class="cls-4" d="M4326.481 2013.6a17.371 17.371 0 0 0-21.468-.277l-3.781-2.466-.812 1.244 3.459 2.256-3.459 2.256.812 1.244 4.04-2.634a19.228 19.228 0 0 0 10.287 3.4 19.489 19.489 0 0 0 10.922-3.853l.74-.583zm-6.152 1.573a.99.99 0 1 1 .99-.99.991.991 0 0 1-.99.994z" transform="translate(-4300.421 -2009.75)"/>
            </g>
            <g id="그룹_718-3" data-name="그룹 718" class="cls-3" transform="translate(4300.421 542.38)">
                <path id="패스_417-3" data-name="패스 417" class="cls-4" d="M4326.481 3668.6a17.371 17.371 0 0 0-21.468-.277l-3.781-2.466-.812 1.244 3.459 2.256-3.459 2.256.812 1.244 4.04-2.634a19.228 19.228 0 0 0 10.287 3.4 19.491 19.491 0 0 0 10.922-3.853l.74-.583zm-6.152 1.573a.99.99 0 1 1 .99-.99.991.991 0 0 1-.99.994z" transform="translate(-4300.421 -3664.75)"/>
            </g>
            <g id="그룹_721-3" data-name="그룹 721" class="cls-5" transform="translate(4336.837 419.848)">
                <g id="그룹_719-3" data-name="그룹 719">
                    <path id="패스_418-3" data-name="패스 418" d="M4442.785 1193.466a2.293 2.293 0 0 1-1.9-1.33c-.32-.5-.452-.651-.656-.651s-.334.154-.655.65a2.025 2.025 0 0 1-3.8 0c-.32-.5-.452-.65-.653-.65s-.334.154-.655.65a2.025 2.025 0 0 1-3.8 0c-.319-.5-.452-.65-.653-.65V1190a2.291 2.291 0 0 1 1.9 1.33c.32.5.452.65.654.65s.334-.154.655-.65a2.025 2.025 0 0 1 3.8 0c.32.5.452.65.653.65s.334-.154.655-.65a2.026 2.026 0 0 1 3.806 0c.321.5.453.65.656.65s.338-.155.658-.651a2.377 2.377 0 0 1 1.906-1.33v1.485a1.785 1.785 0 0 0-.658.65 2.3 2.3 0 0 1-1.913 1.332z" transform="translate(-4430 -1190)"/>
                </g>
                <g id="그룹_720-3" data-name="그룹 720" transform="translate(0 4.456)">
                    <path id="패스_419-3" data-name="패스 419" d="M4442.785 1283.466a2.293 2.293 0 0 1-1.9-1.33c-.32-.5-.452-.651-.656-.651s-.334.154-.655.65a2.025 2.025 0 0 1-3.8 0c-.32-.5-.452-.65-.653-.65s-.334.154-.655.65a2.025 2.025 0 0 1-3.8 0c-.319-.5-.452-.65-.653-.65V1280a2.291 2.291 0 0 1 1.9 1.33c.32.5.452.65.654.65s.334-.154.655-.65a2.025 2.025 0 0 1 3.8 0c.32.5.452.65.653.65s.334-.154.655-.65a2.026 2.026 0 0 1 3.806 0c.321.5.453.65.656.65s.338-.155.658-.651a2.377 2.377 0 0 1 1.906-1.33v1.485a1.785 1.785 0 0 0-.658.65 2.3 2.3 0 0 1-1.913 1.332z" transform="translate(-4430 -1280)"/>
                </g>
            </g>
            <g id="그룹_724-3" data-name="그룹 724" class="cls-5" transform="translate(4336.837 503.029)">
                <g id="그룹_722-3" data-name="그룹 722">
                    <path id="패스_420-3" data-name="패스 420" d="M4442.785 2873.466a2.293 2.293 0 0 1-1.9-1.33c-.32-.5-.452-.651-.656-.651s-.334.154-.655.65a2.025 2.025 0 0 1-3.8 0c-.32-.5-.452-.65-.653-.65s-.334.154-.655.65a2.025 2.025 0 0 1-3.8 0c-.319-.5-.452-.65-.653-.65V2870a2.291 2.291 0 0 1 1.9 1.33c.32.5.452.65.654.65s.334-.154.655-.65a2.025 2.025 0 0 1 3.8 0c.32.5.452.65.653.65s.334-.154.655-.65a2.026 2.026 0 0 1 3.806 0c.321.5.453.65.656.65s.338-.155.658-.651a2.377 2.377 0 0 1 1.906-1.33v1.485a1.782 1.782 0 0 0-.658.65 2.3 2.3 0 0 1-1.913 1.332z" transform="translate(-4430 -2870)"/>
                </g>
                <g id="그룹_723-3" data-name="그룹 723" transform="translate(0 4.456)">
                    <path id="패스_421-3" data-name="패스 421" d="M4442.785 2963.466a2.293 2.293 0 0 1-1.9-1.33c-.32-.5-.452-.651-.656-.651s-.334.154-.655.65a2.025 2.025 0 0 1-3.8 0c-.32-.5-.452-.65-.653-.65s-.334.154-.655.65a2.025 2.025 0 0 1-3.8 0c-.319-.5-.452-.65-.653-.65V2960a2.291 2.291 0 0 1 1.9 1.33c.32.5.452.65.654.65s.334-.154.655-.65a2.025 2.025 0 0 1 3.8 0c.32.5.452.65.653.65s.334-.154.655-.65a2.026 2.026 0 0 1 3.806 0c.321.5.453.65.656.65s.338-.155.658-.651a2.377 2.377 0 0 1 1.906-1.33v1.485a1.785 1.785 0 0 0-.658.65 2.3 2.3 0 0 1-1.913 1.332z" transform="translate(-4430 -2960)"/>
                </g>
            </g>
        </g>
        <g id="그룹_728-4" data-name="그룹 728" transform="translate(-4084.421 -379.729)">
            <g id="그룹_716-4" data-name="그룹 716" class="cls-3" transform="translate(4300.421 379.729)">
                <path id="패스_415-4" data-name="패스 415" class="cls-4" d="M4326.481 383.582a17.371 17.371 0 0 0-21.468-.277l-3.781-2.466-.812 1.244 3.459 2.256-3.459 2.256.812 1.244 4.04-2.634a19.226 19.226 0 0 0 10.287 3.4 19.489 19.489 0 0 0 10.922-3.853l.74-.583zm-6.152 1.573a.99.99 0 1 1 .99-.99.991.991 0 0 1-.99.991z" transform="translate(-4300.421 -379.729)"/>
            </g>
            <g id="그룹_717-4" data-name="그룹 717" class="cls-3" transform="translate(4300.421 460.436)">
                <path id="패스_416-4" data-name="패스 416" class="cls-4" d="M4326.481 2013.6a17.371 17.371 0 0 0-21.468-.277l-3.781-2.466-.812 1.244 3.459 2.256-3.459 2.256.812 1.244 4.04-2.634a19.228 19.228 0 0 0 10.287 3.4 19.489 19.489 0 0 0 10.922-3.853l.74-.583zm-6.152 1.573a.99.99 0 1 1 .99-.99.991.991 0 0 1-.99.994z" transform="translate(-4300.421 -2009.75)"/>
            </g>
            <g id="그룹_718-4" data-name="그룹 718" class="cls-3" transform="translate(4300.421 542.38)">
                <path id="패스_417-4" data-name="패스 417" class="cls-4" d="M4326.481 3668.6a17.371 17.371 0 0 0-21.468-.277l-3.781-2.466-.812 1.244 3.459 2.256-3.459 2.256.812 1.244 4.04-2.634a19.228 19.228 0 0 0 10.287 3.4 19.491 19.491 0 0 0 10.922-3.853l.74-.583zm-6.152 1.573a.99.99 0 1 1 .99-.99.991.991 0 0 1-.99.994z" transform="translate(-4300.421 -3664.75)"/>
            </g>
            <g id="그룹_721-4" data-name="그룹 721" class="cls-5" transform="translate(4336.837 419.848)">
                <g id="그룹_719-4" data-name="그룹 719">
                    <path id="패스_418-4" data-name="패스 418" d="M4442.785 1193.466a2.293 2.293 0 0 1-1.9-1.33c-.32-.5-.452-.651-.656-.651s-.334.154-.655.65a2.025 2.025 0 0 1-3.8 0c-.32-.5-.452-.65-.653-.65s-.334.154-.655.65a2.025 2.025 0 0 1-3.8 0c-.319-.5-.452-.65-.653-.65V1190a2.291 2.291 0 0 1 1.9 1.33c.32.5.452.65.654.65s.334-.154.655-.65a2.025 2.025 0 0 1 3.8 0c.32.5.452.65.653.65s.334-.154.655-.65a2.026 2.026 0 0 1 3.806 0c.321.5.453.65.656.65s.338-.155.658-.651a2.377 2.377 0 0 1 1.906-1.33v1.485a1.785 1.785 0 0 0-.658.65 2.3 2.3 0 0 1-1.913 1.332z" transform="translate(-4430 -1190)"/>
                </g>
                <g id="그룹_720-4" data-name="그룹 720" transform="translate(0 4.456)">
                    <path id="패스_419-4" data-name="패스 419" d="M4442.785 1283.466a2.293 2.293 0 0 1-1.9-1.33c-.32-.5-.452-.651-.656-.651s-.334.154-.655.65a2.025 2.025 0 0 1-3.8 0c-.32-.5-.452-.65-.653-.65s-.334.154-.655.65a2.025 2.025 0 0 1-3.8 0c-.319-.5-.452-.65-.653-.65V1280a2.291 2.291 0 0 1 1.9 1.33c.32.5.452.65.654.65s.334-.154.655-.65a2.025 2.025 0 0 1 3.8 0c.32.5.452.65.653.65s.334-.154.655-.65a2.026 2.026 0 0 1 3.806 0c.321.5.453.65.656.65s.338-.155.658-.651a2.377 2.377 0 0 1 1.906-1.33v1.485a1.785 1.785 0 0 0-.658.65 2.3 2.3 0 0 1-1.913 1.332z" transform="translate(-4430 -1280)"/>
                </g>
            </g>
            <g id="그룹_724-4" data-name="그룹 724" class="cls-5" transform="translate(4336.837 503.029)">
                <g id="그룹_722-4" data-name="그룹 722">
                    <path id="패스_420-4" data-name="패스 420" d="M4442.785 2873.466a2.293 2.293 0 0 1-1.9-1.33c-.32-.5-.452-.651-.656-.651s-.334.154-.655.65a2.025 2.025 0 0 1-3.8 0c-.32-.5-.452-.65-.653-.65s-.334.154-.655.65a2.025 2.025 0 0 1-3.8 0c-.319-.5-.452-.65-.653-.65V2870a2.291 2.291 0 0 1 1.9 1.33c.32.5.452.65.654.65s.334-.154.655-.65a2.025 2.025 0 0 1 3.8 0c.32.5.452.65.653.65s.334-.154.655-.65a2.026 2.026 0 0 1 3.806 0c.321.5.453.65.656.65s.338-.155.658-.651a2.377 2.377 0 0 1 1.906-1.33v1.485a1.782 1.782 0 0 0-.658.65 2.3 2.3 0 0 1-1.913 1.332z" transform="translate(-4430 -2870)"/>
                </g>
                <g id="그룹_723-4" data-name="그룹 723" transform="translate(0 4.456)">
                    <path id="패스_421-4" data-name="패스 421" d="M4442.785 2963.466a2.293 2.293 0 0 1-1.9-1.33c-.32-.5-.452-.651-.656-.651s-.334.154-.655.65a2.025 2.025 0 0 1-3.8 0c-.32-.5-.452-.65-.653-.65s-.334.154-.655.65a2.025 2.025 0 0 1-3.8 0c-.319-.5-.452-.65-.653-.65V2960a2.291 2.291 0 0 1 1.9 1.33c.32.5.452.65.654.65s.334-.154.655-.65a2.025 2.025 0 0 1 3.8 0c.32.5.452.65.653.65s.334-.154.655-.65a2.026 2.026 0 0 1 3.806 0c.321.5.453.65.656.65s.338-.155.658-.651a2.377 2.377 0 0 1 1.906-1.33v1.485a1.785 1.785 0 0 0-.658.65 2.3 2.3 0 0 1-1.913 1.332z" transform="translate(-4430 -2960)"/>
                </g>
            </g>
        </g>
        <g id="그룹_728-5" data-name="그룹 728" transform="translate(-4012.421 -379.729)">
            <g id="그룹_716-5" data-name="그룹 716" class="cls-3" transform="translate(4300.421 379.729)">
                <path id="패스_415-5" data-name="패스 415" class="cls-4" d="M4326.481 383.582a17.371 17.371 0 0 0-21.468-.277l-3.781-2.466-.812 1.244 3.459 2.256-3.459 2.256.812 1.244 4.04-2.634a19.226 19.226 0 0 0 10.287 3.4 19.489 19.489 0 0 0 10.922-3.853l.74-.583zm-6.152 1.573a.99.99 0 1 1 .99-.99.991.991 0 0 1-.99.991z" transform="translate(-4300.421 -379.729)"/>
            </g>
            <g id="그룹_717-5" data-name="그룹 717" class="cls-3" transform="translate(4300.421 460.436)">
                <path id="패스_416-5" data-name="패스 416" class="cls-4" d="M4326.481 2013.6a17.371 17.371 0 0 0-21.468-.277l-3.781-2.466-.812 1.244 3.459 2.256-3.459 2.256.812 1.244 4.04-2.634a19.228 19.228 0 0 0 10.287 3.4 19.489 19.489 0 0 0 10.922-3.853l.74-.583zm-6.152 1.573a.99.99 0 1 1 .99-.99.991.991 0 0 1-.99.994z" transform="translate(-4300.421 -2009.75)"/>
            </g>
            <g id="그룹_718-5" data-name="그룹 718" class="cls-3" transform="translate(4300.421 542.38)">
                <path id="패스_417-5" data-name="패스 417" class="cls-4" d="M4326.481 3668.6a17.371 17.371 0 0 0-21.468-.277l-3.781-2.466-.812 1.244 3.459 2.256-3.459 2.256.812 1.244 4.04-2.634a19.228 19.228 0 0 0 10.287 3.4 19.491 19.491 0 0 0 10.922-3.853l.74-.583zm-6.152 1.573a.99.99 0 1 1 .99-.99.991.991 0 0 1-.99.994z" transform="translate(-4300.421 -3664.75)"/>
            </g>
            <g id="그룹_721-5" data-name="그룹 721" class="cls-5" transform="translate(4336.837 419.848)">
                <g id="그룹_719-5" data-name="그룹 719">
                    <path id="패스_418-5" data-name="패스 418" d="M4442.785 1193.466a2.293 2.293 0 0 1-1.9-1.33c-.32-.5-.452-.651-.656-.651s-.334.154-.655.65a2.025 2.025 0 0 1-3.8 0c-.32-.5-.452-.65-.653-.65s-.334.154-.655.65a2.025 2.025 0 0 1-3.8 0c-.319-.5-.452-.65-.653-.65V1190a2.291 2.291 0 0 1 1.9 1.33c.32.5.452.65.654.65s.334-.154.655-.65a2.025 2.025 0 0 1 3.8 0c.32.5.452.65.653.65s.334-.154.655-.65a2.026 2.026 0 0 1 3.806 0c.321.5.453.65.656.65s.338-.155.658-.651a2.377 2.377 0 0 1 1.906-1.33v1.485a1.785 1.785 0 0 0-.658.65 2.3 2.3 0 0 1-1.913 1.332z" transform="translate(-4430 -1190)"/>
                </g>
                <g id="그룹_720-5" data-name="그룹 720" transform="translate(0 4.456)">
                    <path id="패스_419-5" data-name="패스 419" d="M4442.785 1283.466a2.293 2.293 0 0 1-1.9-1.33c-.32-.5-.452-.651-.656-.651s-.334.154-.655.65a2.025 2.025 0 0 1-3.8 0c-.32-.5-.452-.65-.653-.65s-.334.154-.655.65a2.025 2.025 0 0 1-3.8 0c-.319-.5-.452-.65-.653-.65V1280a2.291 2.291 0 0 1 1.9 1.33c.32.5.452.65.654.65s.334-.154.655-.65a2.025 2.025 0 0 1 3.8 0c.32.5.452.65.653.65s.334-.154.655-.65a2.026 2.026 0 0 1 3.806 0c.321.5.453.65.656.65s.338-.155.658-.651a2.377 2.377 0 0 1 1.906-1.33v1.485a1.785 1.785 0 0 0-.658.65 2.3 2.3 0 0 1-1.913 1.332z" transform="translate(-4430 -1280)"/>
                </g>
            </g>
            <g id="그룹_724-5" data-name="그룹 724" class="cls-5" transform="translate(4336.837 503.029)">
                <g id="그룹_722-5" data-name="그룹 722">
                    <path id="패스_420-5" data-name="패스 420" d="M4442.785 2873.466a2.293 2.293 0 0 1-1.9-1.33c-.32-.5-.452-.651-.656-.651s-.334.154-.655.65a2.025 2.025 0 0 1-3.8 0c-.32-.5-.452-.65-.653-.65s-.334.154-.655.65a2.025 2.025 0 0 1-3.8 0c-.319-.5-.452-.65-.653-.65V2870a2.291 2.291 0 0 1 1.9 1.33c.32.5.452.65.654.65s.334-.154.655-.65a2.025 2.025 0 0 1 3.8 0c.32.5.452.65.653.65s.334-.154.655-.65a2.026 2.026 0 0 1 3.806 0c.321.5.453.65.656.65s.338-.155.658-.651a2.377 2.377 0 0 1 1.906-1.33v1.485a1.782 1.782 0 0 0-.658.65 2.3 2.3 0 0 1-1.913 1.332z" transform="translate(-4430 -2870)"/>
                </g>
                <g id="그룹_723-5" data-name="그룹 723" transform="translate(0 4.456)">
                    <path id="패스_421-5" data-name="패스 421" d="M4442.785 2963.466a2.293 2.293 0 0 1-1.9-1.33c-.32-.5-.452-.651-.656-.651s-.334.154-.655.65a2.025 2.025 0 0 1-3.8 0c-.32-.5-.452-.65-.653-.65s-.334.154-.655.65a2.025 2.025 0 0 1-3.8 0c-.319-.5-.452-.65-.653-.65V2960a2.291 2.291 0 0 1 1.9 1.33c.32.5.452.65.654.65s.334-.154.655-.65a2.025 2.025 0 0 1 3.8 0c.32.5.452.65.653.65s.334-.154.655-.65a2.026 2.026 0 0 1 3.806 0c.321.5.453.65.656.65s.338-.155.658-.651a2.377 2.377 0 0 1 1.906-1.33v1.485a1.785 1.785 0 0 0-.658.65 2.3 2.3 0 0 1-1.913 1.332z" transform="translate(-4430 -2960)"/>
                </g>
            </g>
        </g>
    </g>
</svg>
