<svg xmlns="http://www.w3.org/2000/svg" width="66.924" height="35.841">
    <defs>
        <style>
            .cls-1{fill:#efd460}.cls-2{fill:#7a4e36}.cls-3{fill:none;stroke:#7a4e36;stroke-linecap:round;stroke-linejoin:round;stroke-width:2px}
        </style>
    </defs>
    <g id="그룹_715" data-name="그룹 715" transform="translate(-466.624 -1485.237)">
        <g id="그룹_713" data-name="그룹 713" transform="translate(466.624 1485.237)">
            <path id="패스_406" data-name="패스 406" class="cls-1" d="M484.872 1495.668a9.188 9.188 0 1 1-7.6-10.3 9.09 9.09 0 0 1 7.6 10.3z" transform="translate(-466.624 -1485.237)"/>
            <path id="패스_407" data-name="패스 407" class="cls-2" d="M475.737 1486.172a8.556 8.556 0 0 1 1.384.113 8.292 8.292 0 0 1 5.373 3.264 7.818 7.818 0 0 1 1.449 5.965 8.07 8.07 0 0 1-8.063 6.676 8.544 8.544 0 0 1-1.384-.113 8.293 8.293 0 0 1-5.374-3.263 7.818 7.818 0 0 1-1.448-5.965 8.071 8.071 0 0 1 8.064-6.676zm0-.936a8.923 8.923 0 0 0-1.396 17.764 9.529 9.529 0 0 0 1.538.126 8.923 8.923 0 0 0 1.394-17.763 9.517 9.517 0 0 0-1.537-.126z" transform="translate(-466.624 -1485.237)"/>
            <path id="패스_408" data-name="패스 408" class="cls-2" d="M478.845 1491.148a22.042 22.042 0 0 0-.279 4.947c.076 2.543.354 5.261 2.033 7.246a4.47 4.47 0 0 0 1.238-2.184 25.391 25.391 0 0 0 .642-12.833c-.223-1.065-1.158-2.136-2.064-.988a9.06 9.06 0 0 0-1.57 3.812z" transform="translate(-471.596 -1485.906)"/>
        </g>
        <g id="그룹_714" data-name="그룹 714" transform="translate(515.182 1485.237)">
            <path id="패스_409" data-name="패스 409" class="cls-1" d="M568.18 1495.668a9.189 9.189 0 1 1-7.6-10.3 9.09 9.09 0 0 1 7.6 10.3z" transform="translate(-549.933 -1485.237)"/>
            <path id="패스_410" data-name="패스 410" class="cls-2" d="M559.045 1486.172a8.557 8.557 0 0 1 1.384.113 8.3 8.3 0 0 1 5.373 3.264 7.818 7.818 0 0 1 1.448 5.965 8.07 8.07 0 0 1-8.063 6.676 8.543 8.543 0 0 1-1.384-.113 8.3 8.3 0 0 1-5.374-3.263 7.817 7.817 0 0 1-1.448-5.965 8.072 8.072 0 0 1 8.064-6.676zm0-.936a8.923 8.923 0 0 0-1.396 17.764 9.529 9.529 0 0 0 1.537.126 8.923 8.923 0 0 0 1.395-17.763 9.53 9.53 0 0 0-1.538-.126z" transform="translate(-549.933 -1485.237)"/>
            <path id="패스_411" data-name="패스 411" class="cls-2" d="M562.153 1491.148a22.074 22.074 0 0 0-.279 4.947c.076 2.543.354 5.261 2.033 7.246a4.465 4.465 0 0 0 1.238-2.184 25.39 25.39 0 0 0 .642-12.833c-.223-1.065-1.158-2.136-2.064-.988a9.058 9.058 0 0 0-1.57 3.812z" transform="translate(-554.905 -1485.906)"/>
        </g>
        <path id="패스_412" data-name="패스 412" class="cls-2" d="M511.273 1519.1a1.364 1.364 0 0 0-.613.578c-.179.454.25.9.652 1.253 1.893 1.644 5.288 5.243 5.607 5.257 1.288.058 1.732-.451 2.724-1.344a24.683 24.683 0 0 0 3.5-3.542 2.79 2.79 0 0 0 .488-.9c.227-.914-.635-1.821-1.689-2.2-1.519-.54-3.928-.437-5.587-.438a10.07 10.07 0 0 0-5.082 1.336z" transform="translate(-18.352 -13.566)"/>
        <path id="패스_413" data-name="패스 413" class="cls-3" d="M522.38 1528.759s-.193 6.325.29 7.18 5.883 5.383 7.367-1.314" transform="translate(-23.242 -18.155)"/>
        <path id="패스_414" data-name="패스 414" class="cls-3" d="M516.833 1528.759s.193 6.325-.291 7.18-5.883 5.383-7.367-1.314" transform="translate(-17.749 -18.155)"/>
    </g>
</svg>
