<svg xmlns="http://www.w3.org/2000/svg" width="184.439" height="122.685">
    <defs>
        <style>
            .cls-2{stroke:#094;stroke-miterlimit:10;stroke-width:3px;fill:none}
        </style>
    </defs>
    <g id="그룹_704" data-name="그룹 704" transform="translate(.434 3.068)">
        <path id="패스_370" data-name="패스 370" d="M329.089 297.7a72.428 72.428 0 0 0-4.67-25.613l4.67-90.827-58.388 42.6a89.115 89.115 0 0 0-48.992 0l-58.386-42.605 2.893 56.255 1.777 34.572a72.426 72.426 0 0 0-4.67 25.613" transform="translate(-153.792 -181.264)" style="stroke:#094;stroke-miterlimit:10;stroke-width:3px;fill:#fff"/>
        <path id="선_44" data-name="선 44" class="cls-2" transform="translate(158.977 93.612)" d="M0 7.426 24.595 0"/>
        <path id="선_45" data-name="선 45" class="cls-2" transform="translate(158.977 110.755)" d="M24.595 7.426 0 0"/>
        <path id="선_46" data-name="선 46" class="cls-2" transform="translate(0 93.612)" d="M24.595 7.426 0 0"/>
        <path id="선_47" data-name="선 47" class="cls-2" transform="translate(0 110.755)" d="M0 7.426 24.595 0"/>
    </g>
</svg>
